<svg width="50" height="50" viewBox="0 0 50 50" fill="none" xmlns="http://www.w3.org/2000/svg">
<path d="M17.7083 4.16675C16.0507 4.16675 14.461 4.82523 13.2889 5.99733C12.1168 7.16943 11.4583 8.75915 11.4583 10.4167C11.4583 12.0744 12.1168 13.6641 13.2889 14.8362C14.461 16.0083 16.0507 16.6667 17.7083 16.6667H32.2917C33.9493 16.6667 35.539 16.0083 36.7111 14.8362C37.8832 13.6641 38.5417 12.0744 38.5417 10.4167C38.5417 8.75915 37.8832 7.16943 36.7111 5.99733C35.539 4.82523 33.9493 4.16675 32.2917 4.16675H17.7083ZM32.2917 18.7501C30.634 18.7501 29.0443 19.4086 27.8722 20.5807C26.7001 21.7528 26.0416 23.3425 26.0416 25.0001C26.0416 26.6577 26.7001 28.2474 27.8722 29.4195C29.0443 30.5916 30.634 31.2501 32.2917 31.2501C33.9493 31.2501 35.539 30.5916 36.7111 29.4195C37.8832 28.2474 38.5417 26.6577 38.5417 25.0001C38.5417 23.3425 37.8832 21.7528 36.7111 20.5807C35.539 19.4086 33.9493 18.7501 32.2917 18.7501ZM11.4583 25.0001C11.4583 23.3425 12.1168 21.7528 13.2889 20.5807C14.461 19.4086 16.0507 18.7501 17.7083 18.7501H23.9583V31.2501H17.7083C16.0507 31.2501 14.461 30.5916 13.2889 29.4195C12.1168 28.2474 11.4583 26.6577 11.4583 25.0001ZM17.7083 33.3334C16.4722 33.3334 15.2638 33.7 14.236 34.3867C13.2082 35.0735 12.4071 36.0496 11.9341 37.1916C11.461 38.3337 11.3373 39.5904 11.5784 40.8027C11.8196 42.0151 12.4148 43.1288 13.2889 44.0028C14.163 44.8769 15.2766 45.4722 16.489 45.7133C17.7014 45.9545 18.958 45.8307 20.1001 45.3577C21.2421 44.8846 22.2182 44.0835 22.905 43.0557C23.5918 42.0279 23.9583 40.8195 23.9583 39.5834V33.3334H17.7083Z" fill="black"/>
</svg>
