<svg width="50" height="50" viewBox="0 0 50 50" fill="none" xmlns="http://www.w3.org/2000/svg">
<path fill-rule="evenodd" clip-rule="evenodd" d="M1.5625 9.6875C1.5625 7.53262 2.41852 5.46599 3.94226 3.94226C5.46599 2.41852 7.53262 1.5625 9.6875 1.5625H40.3125C42.4674 1.5625 44.534 2.41852 46.0577 3.94226C47.5815 5.46599 48.4375 7.53262 48.4375 9.6875V40.3125C48.4375 42.4674 47.5815 44.534 46.0577 46.0577C44.534 47.5815 42.4674 48.4375 40.3125 48.4375H9.6875C7.53262 48.4375 5.46599 47.5815 3.94226 46.0577C2.41852 44.534 1.5625 42.4674 1.5625 40.3125V9.6875ZM9.6875 4.6875C8.36142 4.6875 7.08965 5.21428 6.15197 6.15197C5.21428 7.08965 4.6875 8.36142 4.6875 9.6875V40.3125C4.6875 41.6386 5.21428 42.9104 6.15197 43.848C7.08965 44.7857 8.36142 45.3125 9.6875 45.3125H40.3125C41.6386 45.3125 42.9104 44.7857 43.848 43.848C44.7857 42.9104 45.3125 41.6386 45.3125 40.3125V9.6875C45.3125 8.36142 44.7857 7.08965 43.848 6.15197C42.9104 5.21428 41.6386 4.6875 40.3125 4.6875H9.6875ZM34.2667 18.0667C34.8192 18.0667 35.3491 17.8472 35.7398 17.4565C36.1305 17.0658 36.35 16.5359 36.35 15.9833C36.35 15.4308 36.1305 14.9009 35.7398 14.5102C35.3491 14.1195 34.8192 13.9 34.2667 13.9C33.7141 13.9 33.1842 14.1195 32.7935 14.5102C32.4028 14.9009 32.1833 15.4308 32.1833 15.9833C32.1833 16.5359 32.4028 17.0658 32.7935 17.4565C33.1842 17.8472 33.7141 18.0667 34.2667 18.0667ZM36.35 35.3583V20.3104H32.1833V35.3583H36.35ZM16.8125 16.3417L10.1583 35.3583H14.3708L15.9854 30.5938H23.1896L24.9229 35.3583H29.4896L22.125 14.9646H16.8125V16.3417ZM22.0083 26.5396H17.1271L19.5687 18.5875L22.0083 26.5396Z" fill="black"/>
</svg>
