<svg width="50" height="50" viewBox="0 0 50 50" fill="none" xmlns="http://www.w3.org/2000/svg">
<path fill-rule="evenodd" clip-rule="evenodd" d="M1.5625 9.6875C1.5625 7.53262 2.41852 5.46599 3.94226 3.94226C5.46599 2.41852 7.53262 1.5625 9.6875 1.5625H40.3125C42.4674 1.5625 44.534 2.41852 46.0577 3.94226C47.5815 5.46599 48.4375 7.53262 48.4375 9.6875V40.3125C48.4375 42.4674 47.5815 44.534 46.0577 46.0577C44.534 47.5815 42.4674 48.4375 40.3125 48.4375H9.6875C7.53262 48.4375 5.46599 47.5815 3.94226 46.0577C2.41852 44.534 1.5625 42.4674 1.5625 40.3125V9.6875ZM9.6875 4.6875C8.36142 4.6875 7.08965 5.21428 6.15197 6.15197C5.21428 7.08965 4.6875 8.36142 4.6875 9.6875V40.3125C4.6875 41.6386 5.21428 42.9104 6.15197 43.848C7.08965 44.7857 8.36142 45.3125 9.6875 45.3125H40.3125C41.6386 45.3125 42.9104 44.7857 43.848 43.848C44.7857 42.9104 45.3125 41.6386 45.3125 40.3125V9.6875C45.3125 8.36142 44.7857 7.08965 43.848 6.15197C42.9104 5.21428 41.6386 4.6875 40.3125 4.6875H9.6875ZM37.3437 24.2375C35.5583 23.8354 33.6667 23.5187 32.2958 23.6208C31.6021 23.6708 30.7167 23.8875 31.6083 24.6042C32.3437 25.1917 33.2125 25.5604 34.0833 25.9271C34.9792 26.3062 35.8792 26.6875 36.6417 27.3146C37.7062 28.1896 38.5417 29.4646 38.5417 31.25C38.5417 33.0312 37.7 34.3958 36.3583 35.2083C35.1729 35.925 33.7417 36.1292 32.5021 36.1604C30.4979 36.2104 28.2896 35.8104 26.6437 35.4062V31.0979C28.1604 31.5312 30.5146 32.0417 32.3979 31.9937C33.3771 31.9708 33.9542 31.7917 34.2167 31.6333C34.6333 31.3833 34.2542 30.7458 33.9979 30.5354C33.2646 29.9312 32.3833 29.5604 31.4979 29.1875C30.6229 28.8188 29.7437 28.4479 29.0021 27.8542C27.9396 27 27.0833 25.7396 27.0833 23.9583C27.0833 22.5104 27.6875 21.2917 28.7917 20.4896C29.775 19.7812 30.9667 19.5396 31.9854 19.4646C33.7042 19.3375 35.6875 19.6354 37.3437 19.975V24.2375ZM18.75 14.5833H11.4583V35.4167H15.625V29.1667H18.75C20.6839 29.1667 22.5385 28.3984 23.906 27.031C25.2734 25.6635 26.0417 23.8089 26.0417 21.875C26.0417 19.9411 25.2734 18.0865 23.906 16.719C22.5385 15.3516 20.6839 14.5833 18.75 14.5833ZM18.75 25H15.625V18.75H18.75C19.5788 18.75 20.3737 19.0792 20.9597 19.6653C21.5458 20.2513 21.875 21.0462 21.875 21.875C21.875 22.7038 21.5458 23.4987 20.9597 24.0847C20.3737 24.6708 19.5788 25 18.75 25Z" fill="black"/>
</svg>
