<svg width="52" height="52" viewBox="0 0 52 52" fill="none" xmlns="http://www.w3.org/2000/svg">
<path d="M16.3038 2.12326C14.0618 2.14428 12.2441 3.05134 10.7973 4.53862C9.09056 6.29301 7.95235 8.89687 7.6046 11.7431C6.9092 17.4356 9.28546 23.9258 15.9423 26.6347L15.2281 28.393C8.71509 25.7426 5.75484 19.7849 5.60179 14.0727C3.83866 15.1763 2.79785 16.82 2.31695 18.789C1.7352 21.1704 2.03999 24.0235 3.11991 26.695C5.27953 32.0382 10.3684 36.5319 17.1798 35.5913L17.4401 37.4732C12.4844 38.1577 8.28091 36.2975 5.26206 33.3061C4.43412 34.953 4.49994 36.5829 5.19534 38.2128C6.05577 40.2292 7.9881 42.1993 10.5655 43.6559C15.3475 46.3585 22.2248 47.2669 28.1551 44.1733C27.6036 42.0415 27.8857 39.5955 29.307 37.1337C31.6135 33.139 35.48 32.0728 38.2826 33.2044C39.6839 33.7703 40.8298 34.8858 41.3167 36.3688C41.8038 37.8516 41.6048 39.6496 40.5677 41.4786C39.3693 43.5921 37.1 44.3099 35.3626 43.7353C34.4941 43.4479 33.7153 42.7769 33.4457 41.8182C33.1762 40.8595 33.4312 39.7498 34.163 38.638L35.7468 39.6823C35.2148 40.4902 35.1882 41.0107 35.2704 41.3039C35.353 41.5972 35.5589 41.8011 35.956 41.9324C36.7504 42.1951 38.1378 41.917 38.9173 40.5422C39.7489 39.0757 39.8131 37.883 39.5108 36.9621C39.2085 36.0414 38.5108 35.3418 37.5717 34.9627C35.6935 34.2043 32.8856 34.7318 30.9511 38.0827C29.5268 40.5496 29.4913 42.6912 30.2686 44.5254L30.5544 44.9697C30.5344 44.9829 30.5141 44.9951 30.494 45.0079C30.52 45.0584 30.5461 45.1103 30.5733 45.1603C30.7737 45.5274 31.0052 45.8767 31.2653 46.2043C31.2755 46.2175 31.2866 46.2297 31.297 46.2426C31.3371 46.2924 31.3793 46.3426 31.4209 46.3917C32.5897 47.7787 34.301 48.8676 36.226 49.4673C38.6899 50.2348 41.4663 50.1931 43.8273 49.0865C46.1883 47.9798 48.1879 45.8393 49.1786 42.1421C49.5161 40.8821 49.6945 39.7274 49.7372 38.6572C49.7382 38.6148 49.7395 38.5727 49.7402 38.5303C49.7491 38.0123 49.7313 37.4897 49.6831 36.9656C49.6793 36.9243 49.6745 36.8829 49.6704 36.8417C49.6671 36.8143 49.6643 36.7864 49.6609 36.7591C49.3263 34.1398 48.0539 32.071 46.1728 30.2147C43.163 27.245 38.4847 24.9703 33.706 22.6864C28.9272 20.4026 24.0461 18.1059 20.6171 14.7995C17.3993 11.6964 15.5465 7.56975 16.5228 2.12306C16.4497 2.12204 16.3761 2.12245 16.3038 2.12306V2.12326Z" fill="#B2FAFA"/>
</svg>
