<svg width="155" height="155" viewBox="0 0 155 155" fill="none" xmlns="http://www.w3.org/2000/svg">
<path d="M110.083 118.907L110.079 120.907L110.079 120.907L110.083 118.907ZM32.0038 116.758C30.8993 116.756 30.0021 117.649 30 118.754C29.9979 119.858 30.8916 120.756 31.9962 120.758L32 118.758L32.0038 116.758ZM119.84 120.926C120.944 120.928 121.841 120.034 121.843 118.93C121.846 117.825 120.952 116.928 119.847 116.926L119.843 118.926L119.84 120.926ZM110.163 77.6058L112.163 77.6097V77.6058H110.163ZM43.8401 77.479C43.8422 76.3744 42.9485 75.4773 41.844 75.4751C40.7394 75.473 39.8422 76.3667 39.8401 77.4713L41.8401 77.4751L43.8401 77.479ZM113.474 47.5623L111.474 47.5584L111.474 47.5584L113.474 47.5623ZM113.429 71.1337L115.429 71.1376L115.429 71.1376L113.429 71.1337ZM38.5994 70.9905L40.5993 70.9944L40.5993 70.9944L38.5994 70.9905ZM38.6448 47.4191L36.6449 47.4152L36.6449 47.4152L38.6448 47.4191ZM55.5653 71.023C55.5674 69.9184 54.6737 69.0213 53.5691 69.0192C52.4646 69.017 51.5674 69.9107 51.5653 71.0153L53.5653 71.0192L55.5653 71.023ZM70.5312 71.0517C70.5333 69.9471 69.6396 69.0499 68.535 69.0478C67.4305 69.0457 66.5333 69.9394 66.5312 71.0439L68.5312 71.0478L70.5312 71.0517ZM85.4971 71.0803C85.4992 69.9757 84.6055 69.0786 83.501 69.0764C82.3964 69.0743 81.4992 69.968 81.4971 71.0726L83.4971 71.0764L85.4971 71.0803ZM100.463 71.1089C100.465 70.0044 99.5715 69.1072 98.4669 69.1051C97.3623 69.1029 96.4652 69.9966 96.463 71.1012L98.463 71.1051L100.463 71.1089ZM90.966 78.3792L90.9622 80.3792L90.966 78.3792ZM110.314 44.4033L110.31 46.4033L110.31 46.4033L110.314 44.4033ZM41.8176 44.2722L41.8215 42.2722L41.8215 42.2722L41.8176 44.2722ZM72.7745 44.8367L72.0093 42.9889L72.0093 42.9889L72.7745 44.8367ZM72.9221 44.7304L71.411 43.4202L71.411 43.4202L72.9221 44.7304ZM68.5633 47.0714L70.2721 46.0322L70.2721 46.0322L68.5633 47.0714ZM68.7499 46.5034L69.5151 48.3512L69.5151 48.3512L68.7499 46.5034ZM70.877 50.9564L68.8835 51.1169L68.8835 51.1169L70.877 50.9564ZM70.8211 50.7837L69.1123 51.823L69.1123 51.823L70.8211 50.7837ZM71.7103 55.6346L71.2556 53.6869L71.7103 55.6346ZM71.2253 55.2824L73.2189 55.1218L73.2189 55.1218L71.2253 55.2824ZM76.1362 54.6442L75.6741 56.59L76.1362 54.6442ZM75.954 54.6438L76.4087 56.5915L76.4087 56.5915L75.954 54.6438ZM80.8624 55.3008L78.8694 55.1326L78.8694 55.1326L80.8624 55.3008ZM80.3761 55.6512L79.9139 57.597L80.3761 55.6512ZM81.284 50.8037L82.9888 51.8496L82.9888 51.8496L81.284 50.8037ZM81.2274 50.9762L83.2203 51.1444L83.2203 51.1444L81.2274 50.9762ZM83.3717 46.5314L84.144 44.6865L84.144 44.6865L83.3717 46.5314ZM83.5561 47.1001L81.8513 46.0543L81.8513 46.0543L83.5561 47.1001ZM79.2063 44.7424L80.7225 43.438L80.7225 43.438L79.2063 44.7424ZM79.3536 44.8493L78.5813 46.6942L78.5813 46.6942L79.3536 44.8493ZM76.3707 41.4465L74.8546 42.7508L74.8546 42.7508L76.3707 41.4465ZM75.7705 41.4453L77.2815 42.7555L77.2815 42.7555L75.7705 41.4453ZM105 123L103.78 124.585C104.499 125.138 105.5 125.138 106.219 124.585L105 123ZM110.163 77.1416L109.055 75.4766L109.055 75.4766L110.163 77.1416ZM110.139 89.8012L111.394 88.2439L110.139 89.8012ZM110.114 102.674L111.363 104.236L111.363 104.236L110.114 102.674ZM110.162 77.7842L109.61 79.7065L109.61 79.7065L110.162 77.7842ZM101.982 77.3022L102.305 79.276L101.982 77.3022ZM100.226 118.888L101.588 117.424L101.588 117.424L100.226 118.888ZM110.084 118.598L108.715 117.14L108.715 117.14L110.084 118.598ZM109.754 118.907L108.392 117.441L109.754 118.907ZM41.7604 118.776L41.7642 116.776L32.0038 116.758L32 118.758L31.9962 120.758L41.7566 120.776L41.7604 118.776ZM110.083 118.907L110.079 120.907L119.84 120.926L119.843 118.926L119.847 116.926L110.087 116.907L110.083 118.907ZM41.7604 118.776L43.7604 118.78L43.8401 77.479L41.8401 77.4751L39.8401 77.4713L39.7604 118.773L41.7604 118.776ZM113.474 47.5623L111.474 47.5584L111.429 71.1298L113.429 71.1337L115.429 71.1376L115.474 47.5661L113.474 47.5623ZM38.5994 70.9905L40.5993 70.9944L40.6448 47.4229L38.6448 47.4191L36.6449 47.4152L36.5994 70.9867L38.5994 70.9905ZM53.5653 71.0192L51.5653 71.0153C51.5597 73.8867 49.1502 76.2992 46.0721 76.2933L46.0682 78.2933L46.0644 80.2933C51.2517 80.3032 55.5553 76.2022 55.5653 71.023L53.5653 71.0192ZM46.0682 78.2933L46.0721 76.2933C42.9939 76.2874 40.5938 73.8658 40.5993 70.9944L38.5994 70.9905L36.5994 70.9867C36.5894 76.1659 40.8771 80.2834 46.0644 80.2933L46.0682 78.2933ZM68.5312 71.0478L66.5312 71.0439C66.5257 73.9154 64.1161 76.3278 61.038 76.3219L61.0342 78.3219L61.0303 80.3219C66.2176 80.3319 70.5212 76.2308 70.5312 71.0517L68.5312 71.0478ZM61.0342 78.3219L61.038 76.3219C57.9599 76.3161 55.5597 73.8944 55.5653 71.023L53.5653 71.0192L51.5653 71.0153C51.5553 76.1945 55.843 80.312 61.0303 80.3219L61.0342 78.3219ZM83.4971 71.0764L81.4971 71.0726C81.4916 73.944 79.0821 76.3565 76.0039 76.3506L76.0001 78.3506L75.9962 80.3506C81.1835 80.3605 85.4871 76.2595 85.4971 71.0803L83.4971 71.0764ZM76.0001 78.3506L76.0039 76.3506C72.9258 76.3447 70.5256 73.9231 70.5312 71.0517L68.5312 71.0478L66.5312 71.0439C66.5212 76.2231 70.8089 80.3406 75.9962 80.3506L76.0001 78.3506ZM98.463 71.1051L96.463 71.1012C96.4575 73.9726 94.048 76.3851 90.9698 76.3792L90.966 78.3792L90.9622 80.3792C96.1495 80.3891 100.453 76.2881 100.463 71.1089L98.463 71.1051ZM90.966 78.3792L90.9698 76.3792C87.8917 76.3733 85.4916 73.9517 85.4971 71.0803L83.4971 71.0764L81.4971 71.0726C81.4871 76.2518 85.7748 80.3693 90.9622 80.3792L90.966 78.3792ZM91.5197 44.3673L91.5158 46.3673L110.31 46.4033L110.314 44.4033L110.318 42.4033L91.5235 42.3673L91.5197 44.3673ZM41.8176 44.2722L41.8138 46.2722L60.608 46.3082L60.6118 44.3082L60.6156 42.3082L41.8215 42.2722L41.8176 44.2722ZM113.474 47.5623L115.474 47.5661C115.48 44.712 113.163 42.4087 110.318 42.4033L110.314 44.4033L110.31 46.4033C110.963 46.4045 111.476 46.9299 111.474 47.5584L113.474 47.5623ZM38.6448 47.4191L40.6448 47.4229C40.6461 46.7944 41.1612 46.271 41.8138 46.2722L41.8176 44.2722L41.8215 42.2722C38.9762 42.2668 36.6504 44.5611 36.6449 47.4152L38.6448 47.4191ZM92.3235 49.2277L90.3235 49.2239C90.3084 57.0563 83.9166 63.4083 76.0288 63.3932L76.0249 65.3932L76.0211 67.3932C86.1016 67.4125 94.3041 59.2895 94.3235 49.2316L92.3235 49.2277ZM76.0249 65.3932L76.0288 63.3932C68.1409 63.3781 61.7738 57.0017 61.7889 49.1694L59.7889 49.1655L57.7889 49.1616C57.7695 59.2195 65.9406 67.3739 76.0211 67.3932L76.0249 65.3932ZM59.7889 49.1655L61.7889 49.1694C61.804 41.337 68.1958 34.9849 76.0836 35L76.0875 33L76.0913 31C66.0108 30.9807 57.8083 39.1037 57.7889 49.1616L59.7889 49.1655ZM76.0875 33L76.0836 35C83.9715 35.0151 90.3386 41.3915 90.3235 49.2239L92.3235 49.2277L94.3235 49.2316C94.3429 39.1737 86.1718 31.0193 76.0913 31L76.0875 33ZM76.3707 41.4465L74.8546 42.7508L77.6902 46.0468L79.2063 44.7424L80.7225 43.438L77.8868 40.1421L76.3707 41.4465ZM79.3536 44.8493L78.5813 46.6942L82.5994 48.3762L83.3717 46.5314L84.144 44.6865L80.1258 43.0045L79.3536 44.8493ZM83.5561 47.1001L81.8513 46.0543L79.5792 49.7579L81.284 50.8037L82.9888 51.8496L85.2608 48.1459L83.5561 47.1001ZM81.2274 50.9762L79.2345 50.808L78.8694 55.1326L80.8624 55.3008L82.8553 55.469L83.2203 51.1444L81.2274 50.9762ZM80.3761 55.6512L80.8382 53.7053L76.5984 52.6983L76.1362 54.6442L75.6741 56.59L79.9139 57.597L80.3761 55.6512ZM75.954 54.6438L75.4993 52.6962L71.2556 53.6869L71.7103 55.6346L72.165 57.5822L76.4087 56.5915L75.954 54.6438ZM71.2253 55.2824L73.2189 55.1218L72.8706 50.7959L70.877 50.9564L68.8835 51.1169L69.2318 55.4429L71.2253 55.2824ZM70.8211 50.7837L72.5299 49.7445L70.2721 46.0322L68.5633 47.0714L66.8545 48.1107L69.1123 51.823L70.8211 50.7837ZM68.7499 46.5034L69.5151 48.3512L73.5397 46.6846L72.7745 44.8367L72.0093 42.9889L67.9847 44.6555L68.7499 46.5034ZM72.9221 44.7304L74.4332 46.0406L77.2815 42.7555L75.7705 41.4453L74.2594 40.1351L71.411 43.4202L72.9221 44.7304ZM72.7745 44.8367L73.5397 46.6846C73.883 46.5424 74.1891 46.3221 74.4332 46.0406L72.9221 44.7304L71.411 43.4202C71.5747 43.2314 71.7797 43.084 72.0093 42.9889L72.7745 44.8367ZM68.5633 47.0714L70.2721 46.0322C70.7872 46.8791 70.4192 47.9768 69.5151 48.3512L68.7499 46.5034L67.9847 44.6555C66.6333 45.2152 66.0885 46.8511 66.8545 48.1107L68.5633 47.0714ZM70.877 50.9564L72.8706 50.7959C72.8406 50.4233 72.7237 50.0633 72.5299 49.7445L70.8211 50.7837L69.1123 51.823C68.9822 51.609 68.9036 51.3673 68.8835 51.1169L70.877 50.9564ZM71.7103 55.6346L71.2556 53.6869C72.2011 53.4662 73.1393 54.1337 73.2189 55.1218L71.2253 55.2824L69.2318 55.4429C69.3501 56.9118 70.7478 57.9131 72.165 57.5822L71.7103 55.6346ZM76.1362 54.6442L76.5984 52.6983C76.2371 52.6125 75.8609 52.6118 75.4993 52.6962L75.954 54.6438L76.4087 56.5915C76.167 56.6479 75.9155 56.6474 75.6741 56.59L76.1362 54.6442ZM80.8624 55.3008L78.8694 55.1326C78.9528 54.1448 79.8936 53.4809 80.8382 53.7053L80.3761 55.6512L79.9139 57.597C81.3298 57.9333 82.7313 56.9375 82.8553 55.469L80.8624 55.3008ZM81.284 50.8037L79.5792 49.7579C79.3841 50.0759 79.2659 50.4355 79.2345 50.808L81.2274 50.9762L83.2203 51.1444C83.1992 51.3947 83.1197 51.6362 82.9888 51.8496L81.284 50.8037ZM83.3717 46.5314L82.5994 48.3762C81.6967 47.9983 81.333 46.8992 81.8513 46.0543L83.5561 47.1001L85.2608 48.1459C86.0317 46.8893 85.4933 45.2513 84.144 44.6865L83.3717 46.5314ZM79.2063 44.7424L77.6902 46.0468C77.9333 46.3293 78.2385 46.5507 78.5813 46.6942L79.3536 44.8493L80.1258 43.0045C80.3551 43.1004 80.5595 43.2487 80.7225 43.438L79.2063 44.7424ZM76.3707 41.4465L77.8868 40.1421C76.9333 39.0337 75.2171 39.0305 74.2594 40.1351L75.7705 41.4453L77.2815 42.7555C76.6404 43.495 75.493 43.4928 74.8546 42.7508L76.3707 41.4465ZM104.922 87.9645V85.9645C99.242 85.9645 94.6227 90.5512 94.6227 96.2276H96.6227H98.6227C98.6227 92.7768 101.435 89.9645 104.922 89.9645V87.9645ZM96.6227 96.2276H94.6227C94.6227 101.904 99.242 106.491 104.922 106.491V104.491V102.491C101.435 102.491 98.6227 99.6784 98.6227 96.2276H96.6227ZM113.429 71.1337L111.429 71.1298C111.425 72.9164 110.503 74.5128 109.055 75.4766L110.163 77.1416L111.271 78.8066C113.758 77.151 115.423 74.3449 115.429 71.1376L113.429 71.1337ZM110.163 77.6058H112.163V77.1416H110.163H108.163V77.6058H110.163ZM113.221 96.2276H115.221C115.221 92.9996 113.723 90.1209 111.394 88.2439L110.139 89.8012L108.884 91.3585C110.315 92.5112 111.221 94.2645 111.221 96.2276H113.221ZM110.139 89.8012L111.394 88.2439C109.625 86.8186 107.371 85.9645 104.922 85.9645V87.9645V89.9645C106.426 89.9645 107.802 90.4864 108.884 91.3585L110.139 89.8012ZM104.922 104.491V106.491C107.356 106.491 109.599 105.646 111.363 104.236L110.114 102.674L108.865 101.112C107.786 101.975 106.418 102.491 104.922 102.491V104.491ZM110.114 102.674L111.363 104.236C113.71 102.36 115.221 99.4698 115.221 96.2276H113.221H111.221C111.221 98.1992 110.307 99.9594 108.865 101.112L110.114 102.674ZM110.163 77.6058L108.163 77.602L108.162 77.7804L110.162 77.7842L112.162 77.7881L112.163 77.6097L110.163 77.6058ZM110.162 77.7842L109.61 79.7065C116.715 81.747 122 88.3234 122 95.852H124H126C126 86.4345 119.431 78.3653 110.715 75.8619L110.162 77.7842ZM105 77.0572V79.0572C106.35 79.0572 107.668 79.2204 108.934 79.5276L109.406 77.5839L109.877 75.6403C108.308 75.2595 106.674 75.0572 105 75.0572V77.0572ZM109.406 77.5839L108.934 79.5276C109.161 79.5826 109.387 79.6423 109.61 79.7065L110.162 77.7842L110.715 75.8619C110.438 75.7824 110.159 75.7085 109.877 75.6403L109.406 77.5839ZM110.163 77.1416L109.055 75.4766C108.877 75.595 108.691 75.7035 108.499 75.8013L109.406 77.5839L110.313 79.3665C110.644 79.198 110.964 79.0109 111.271 78.8066L110.163 77.1416ZM85.5 95.852H87.5C87.5 87.7233 94.1949 80.6032 102.305 79.276L101.982 77.3022L101.659 75.3285C91.8502 76.9337 83.5 85.5342 83.5 95.852H85.5ZM101.982 77.3022L102.305 79.276C103.184 79.1321 104.084 79.0572 105 79.0572V77.0572V75.0572C103.866 75.0572 102.75 75.1501 101.659 75.3285L101.982 77.3022ZM101.982 77.3022L103.023 75.5945C101.463 74.6433 100.459 72.9772 100.463 71.1089L98.463 71.1051L96.463 71.1012C96.4566 74.4576 98.2664 77.3796 100.941 79.01L101.982 77.3022ZM105 123C106.219 121.415 106.219 121.415 106.22 121.415C106.22 121.415 106.22 121.415 106.22 121.415C106.22 121.415 106.22 121.415 106.22 121.415C106.22 121.415 106.22 121.415 106.22 121.415C106.219 121.415 106.218 121.414 106.217 121.413C106.214 121.411 106.209 121.407 106.203 121.402C106.189 121.392 106.169 121.375 106.14 121.353C106.084 121.309 105.999 121.242 105.887 121.153C105.664 120.974 105.335 120.708 104.921 120.363C104.092 119.672 102.927 118.668 101.588 117.424L100.226 118.888L98.8646 120.353C100.264 121.654 101.485 122.706 102.359 123.435C102.796 123.799 103.147 124.084 103.391 124.278C103.513 124.376 103.608 124.451 103.674 124.502C103.706 124.528 103.732 124.548 103.75 124.562C103.759 124.569 103.766 124.574 103.771 124.578C103.773 124.58 103.775 124.582 103.777 124.583C103.778 124.583 103.778 124.584 103.779 124.584C103.779 124.584 103.779 124.585 103.78 124.585C103.78 124.585 103.78 124.585 103.78 124.585C103.78 124.585 103.78 124.585 105 123ZM100.226 118.888L101.588 117.424C98.8041 114.835 95.2306 111.284 92.3641 107.384C89.4552 103.427 87.5 99.4102 87.5 95.852H85.5H83.5C83.5 100.723 86.0939 105.608 89.1411 109.753C92.2307 113.956 96.0204 117.709 98.8646 120.353L100.226 118.888ZM100.226 118.888L100.23 116.888L41.7642 116.776L41.7604 118.776L41.7566 120.776L100.223 120.888L100.226 118.888ZM110.084 118.598L108.084 118.594L108.083 118.903L110.083 118.907L112.083 118.911L112.084 118.602L110.084 118.598ZM124 95.852H122C122 99.3751 120.208 103.325 117.51 107.205C114.846 111.037 111.477 114.546 108.715 117.14L110.084 118.598L111.453 120.056C114.318 117.366 117.908 113.64 120.794 109.489C123.648 105.385 126 100.604 126 95.852H124ZM110.084 118.598L108.715 117.14C108.606 117.242 108.499 117.342 108.392 117.441L109.754 118.907L111.115 120.372C111.226 120.268 111.339 120.163 111.453 120.056L110.084 118.598ZM109.754 118.907L108.392 117.441C107.058 118.681 105.898 119.68 105.073 120.368C104.661 120.711 104.333 120.977 104.111 121.154C104 121.243 103.915 121.31 103.859 121.354C103.831 121.376 103.81 121.392 103.797 121.402C103.79 121.407 103.786 121.411 103.783 121.413C103.781 121.414 103.78 121.415 103.78 121.415C103.78 121.415 103.78 121.415 103.78 121.415C103.78 121.415 103.78 121.415 103.78 121.415C103.78 121.415 103.78 121.415 103.78 121.415C103.78 121.415 103.78 121.415 105 123C106.219 124.585 106.219 124.585 106.22 124.585C106.22 124.585 106.22 124.585 106.22 124.585C106.22 124.585 106.22 124.584 106.221 124.584C106.221 124.584 106.222 124.583 106.222 124.583C106.224 124.582 106.226 124.58 106.229 124.578C106.234 124.574 106.241 124.569 106.25 124.562C106.267 124.548 106.293 124.528 106.326 124.502C106.391 124.451 106.486 124.377 106.607 124.28C106.85 124.086 107.199 123.803 107.634 123.44C108.504 122.715 109.72 121.668 111.115 120.372L109.754 118.907ZM110.083 118.907L110.087 116.907L109.757 116.907L109.754 118.907L109.75 120.907L110.079 120.907L110.083 118.907Z" fill="#C10230"/>
</svg>
