<svg width="188" height="94" viewBox="0 0 188 94" fill="none" xmlns="http://www.w3.org/2000/svg">
<path d="M45.7969 53.2031L36.4219 43.8281C36.0703 43.4766 36.0703 42.832 36.4219 42.4805C36.7734 42.1289 37.418 42.1289 37.7695 42.4805L46.5 51.2109L55.1719 42.4805C55.5234 42.1289 56.168 42.1289 56.5195 42.4805C56.8711 42.832 56.8711 43.4766 56.5195 43.8281L47.1445 53.2031C46.793 53.5547 46.1484 53.5547 45.7969 53.2031Z" fill="white"/>
<path d="M139.797 53.2031L130.422 43.8281C130.07 43.4766 130.07 42.832 130.422 42.4805C130.773 42.1289 131.418 42.1289 131.77 42.4805L140.5 51.2109L149.172 42.4805C149.523 42.1289 150.168 42.1289 150.52 42.4805C150.871 42.832 150.871 43.4766 150.52 43.8281L141.145 53.2031C140.793 53.5547 140.148 53.5547 139.797 53.2031Z" fill="#382F2D"/>
</svg>
