<svg width="120" height="40" viewBox="0 0 120 40" fill="none" xmlns="http://www.w3.org/2000/svg">
<path fill-rule="evenodd" clip-rule="evenodd" d="M17.7778 20.8V28H21.1359V20.9H23.4075L24.0001 17.9H21.1359C21.1359 17.9 21.1359 16.5 21.1359 15.7C21.1359 15.4 21.2346 15 21.7285 15C22.4198 15 23.3087 15 23.3087 15V12C23.3087 12 21.8272 12 20.247 12C19.2593 12 17.7778 13.3 17.7778 14.8C17.7778 16.3 17.7778 17.9 17.7778 17.9H16.0001V20.9L17.7778 20.8Z" fill="#382F2D"/>
<path d="M60 16.8335C58.2883 16.8335 56.8333 18.2885 56.8333 20.0002C56.8333 21.7119 58.2883 23.1668 60 23.1668C61.7117 23.1668 63.1667 21.7119 63.1667 20.0002C63.1667 18.2885 61.7117 16.8335 60 16.8335Z" fill="#382F2D"/>
<path d="M64.0591 10.5H56.0273C52.9182 10.5 50.5 12.9182 50.5 15.9409V23.9727C50.5 27.0818 52.9182 29.5 56.0273 29.5H64.0591C67.0818 29.5 69.5 27.0818 69.5 23.9727V15.9409C69.5 12.9182 67.0818 10.5 64.0591 10.5ZM60 25.0091C57.2364 25.0091 55.0773 22.7636 55.0773 20.0864C55.0773 17.4091 57.2364 15.0773 60 15.0773C62.7636 15.0773 64.9227 17.3227 64.9227 20C64.9227 22.6773 62.7636 25.0091 60 25.0091ZM65.0955 16.1136C64.4909 16.1136 63.9727 15.5955 63.9727 14.9909C63.9727 14.3864 64.4909 13.8682 65.0955 13.8682C65.7 13.8682 66.2182 14.3864 66.2182 14.9909C66.2182 15.5955 65.7 16.1136 65.0955 16.1136Z" fill="#382F2D"/>
<path d="M100.548 12C95.8319 12 91.9999 15.1 91.9999 18.9C91.9999 21.3 93.572 23.4 95.8319 24.7L95.2424 28L98.8778 25.6C99.3691 25.7 99.9586 25.7 100.45 25.7C105.166 25.7 108.998 22.6 108.998 18.8C109.096 15.1 105.264 12 100.548 12Z" fill="#382F2D"/>
</svg>
