<svg width="64" height="32" viewBox="0 0 64 32" fill="none" xmlns="http://www.w3.org/2000/svg">
<path opacity="0.5" d="M50.3438 15.6562C50.5312 15.8438 50.5312 16.1875 50.3438 16.375L45.3438 21.375C45.1562 21.5625 44.8125 21.5625 44.625 21.375C44.4375 21.1875 44.4375 20.8438 44.625 20.6562L49.2812 16L44.625 11.375C44.4375 11.1875 44.4375 10.8438 44.625 10.6562C44.8125 10.4688 45.1562 10.4688 45.3438 10.6562L50.3438 15.6562Z" fill="#382F2D"/>
<path opacity="0.5" d="M13.6563 16.3437C13.4688 16.1562 13.4688 15.8125 13.6563 15.625L18.6563 10.625C18.8438 10.4375 19.1875 10.4375 19.375 10.625C19.5625 10.8125 19.5625 11.1562 19.375 11.3437L14.7188 16L19.375 20.625C19.5625 20.8125 19.5625 21.1562 19.375 21.3437C19.1875 21.5312 18.8438 21.5312 18.6563 21.3437L13.6563 16.3437Z" fill="#382F2D"/>
</svg>
