<svg width="226" height="402" viewBox="0 0 226 402" fill="none" xmlns="http://www.w3.org/2000/svg">
<path d="M10.2334 53.5978C10.2334 29.5194 29.7528 10 53.8312 10H172.168C196.247 10 215.766 29.5194 215.766 53.5978V348.402C215.766 372.481 196.247 392 172.168 392H53.8312C29.7528 392 10.2334 372.481 10.2334 348.402V53.5978Z" stroke="black" stroke-opacity="0.1" stroke-width="20"/>
<circle cx="176" cy="50" r="20" fill="white" fill-opacity="0.8" stroke="#E5E5E5" stroke-width="1.5"/>
<path d="M185 59L180.657 54.6569M180.657 54.6569C182.105 53.2091 183 51.2091 183 49C183 44.5817 179.418 41 175 41C170.582 41 167 44.5817 167 49C167 53.4183 170.582 57 175 57C177.209 57 179.209 56.1046 180.657 54.6569Z" stroke="#A7A7A7" stroke-width="2" stroke-linecap="round"/>
</svg>
